<?xml version="1.0" standalone="no"?>
<!DOCTYPE svg PUBLIC "-//W3C//DTD SVG 20010904//EN"
 "http://www.w3.org/TR/2001/REC-SVG-20010904/DTD/svg10.dtd">
<svg version="1.0" xmlns="http://www.w3.org/2000/svg"
 width="125.000000pt" height="125.000000pt" viewBox="0 0 125.000000 125.000000"
 preserveAspectRatio="xMidYMid meet">
<metadata>
Created by potrace 1.11, written by Peter Selinger 2001-2013
</metadata>
<g transform="translate(0.000000,125.000000) scale(0.100000,-0.100000)"
fill="#000000" stroke="none">
<path d="M425 1223 c-31 -8 -39 -20 -17 -27 22 -7 37 -35 25 -47 -4 -4 -40 -9
-79 -11 -47 -2 -80 -10 -99 -22 l-29 -19 24 -9 c43 -16 49 -58 9 -58 -31 0
-92 -29 -121 -57 -36 -34 -35 -43 2 -43 42 0 40 -32 -4 -58 -36 -21 -80 -74
-91 -109 -7 -26 -3 -28 26 -10 17 10 22 9 34 -7 13 -17 11 -23 -16 -54 -37
-41 -49 -72 -49 -119 0 -35 0 -36 20 -18 19 17 50 15 50 -3 0 -5 -7 -26 -15
-45 -16 -38 -19 -109 -6 -142 8 -19 8 -19 20 3 8 16 20 22 34 20 20 -3 22 -8
19 -55 -5 -79 50 -190 60 -120 2 13 11 23 23 25 18 2 23 -6 34 -49 12 -47 61
-119 81 -119 5 0 10 12 12 27 5 43 30 38 66 -12 30 -43 84 -85 109 -85 8 0 10
11 6 35 -7 46 16 47 65 4 l36 -32 40 44 c34 36 51 46 97 56 31 6 82 23 113 38
59 28 166 109 166 126 0 25 -32 18 -67 -15 -43 -41 -130 -89 -187 -105 -36 -9
-38 -9 -24 5 9 9 49 32 89 53 40 20 75 41 76 46 1 6 -6 21 -16 34 l-18 23 -60
-31 c-163 -82 -345 -56 -473 67 -52 50 -53 50 -77 35 -24 -16 -26 -16 -37 3
-38 66 -59 134 -64 215 l-5 85 35 -4 c34 -4 35 -3 41 35 17 105 113 223 222
275 55 25 85 32 173 38 59 5 109 5 112 1 3 -3 11 -6 18 -7 39 -3 43 -5 36 -16
-4 -6 -3 -8 4 -4 14 8 63 -14 56 -26 -3 -5 -2 -8 3 -7 22 4 34 -2 27 -13 -4
-7 -4 -10 1 -6 4 4 14 3 22 -3 10 -9 18 -8 33 6 20 18 19 18 -20 49 -22 16
-40 36 -40 44 0 7 4 11 8 8 5 -3 9 2 9 10 0 33 -146 84 -239 84 -45 0 -67 6
-96 25 -67 44 -133 61 -187 48z"/>
<path d="M380 855 c0 -9 9 -15 25 -15 24 0 25 -2 25 -65 0 -58 2 -65 20 -65
16 0 19 8 22 63 3 56 5 62 26 65 12 2 22 10 22 18 0 11 -16 14 -70 14 -56 0
-70 -3 -70 -15z"/>
<path d="M540 790 l0 -80 89 0 c80 0 90 2 105 23 l16 22 16 -22 c10 -13 27
-23 41 -23 24 0 24 1 11 23 -43 66 -43 62 -20 95 27 38 27 42 -1 42 -12 0 -28
-10 -35 -21 l-14 -21 -14 21 c-9 12 -26 21 -40 21 l-24 0 26 -39 26 -40 -25
-36 c-19 -27 -26 -32 -30 -20 -4 10 -20 15 -47 15 -22 0 -40 5 -40 10 0 6 16
10 35 10 28 0 35 4 35 20 0 16 -7 20 -35 20 -24 0 -35 5 -35 15 0 11 11 15 40
15 29 0 40 4 40 15 0 12 -13 15 -60 15 l-60 0 0 -80z"/>
<path d="M840 790 c0 -73 2 -80 20 -80 16 0 20 7 20 30 0 28 3 30 35 30 32 0
35 -2 35 -30 0 -23 4 -30 20 -30 18 0 20 7 20 80 0 73 -2 80 -20 80 -16 0 -20
-7 -20 -30 0 -28 -3 -30 -35 -30 -32 0 -35 2 -35 30 0 23 -4 30 -20 30 -18 0
-20 -7 -20 -80z"/>
<path d="M1043 855 c-11 -8 -24 -27 -27 -41 -21 -81 81 -138 139 -79 71 70
-29 178 -112 120z m91 -47 c15 -25 -3 -52 -38 -56 -20 -3 -28 2 -35 20 -13 33
4 60 36 56 14 -2 31 -11 37 -20z"/>
<path d="M680 677 c-60 -30 -64 -99 -8 -140 23 -17 34 -19 65 -11 55 13 52 40
-4 36 -34 -3 -44 1 -53 18 -21 39 42 97 65 60 5 -8 11 -7 21 1 21 17 17 26
-17 38 -39 14 -38 14 -69 -2z"/>
<path d="M338 626 c-3 -33 -11 -61 -22 -71 -21 -22 -7 -40 23 -30 21 6 24 15
36 88 4 28 11 37 25 37 18 0 20 -7 20 -65 0 -58 2 -65 20 -65 18 0 20 7 20 80
l0 80 -59 0 -59 0 -4 -54z"/>
<path d="M492 603 l3 -78 63 -3 c57 -3 62 -1 62 18 0 17 -6 20 -40 20 -29 0
-40 4 -40 15 0 10 11 15 35 15 24 0 35 5 35 15 0 10 -11 15 -35 15 -24 0 -35
5 -35 15 0 11 11 15 40 15 29 0 40 4 40 15 0 12 -14 15 -65 15 l-66 0 3 -77z"/>
<path d="M700 420 c0 -73 2 -80 20 -80 16 0 20 7 20 30 0 18 5 30 13 30 7 0
21 -13 30 -30 10 -17 27 -30 38 -30 24 0 24 5 -2 46 l-21 34 21 34 c26 41 26
46 1 46 -12 0 -26 -12 -35 -30 -9 -16 -22 -30 -30 -30 -10 0 -15 10 -15 30 0
23 -4 30 -20 30 -18 0 -20 -7 -20 -80z"/>
<path d="M876 479 c-20 -16 -26 -29 -26 -59 0 -49 30 -80 76 -80 46 0 63 9 79
41 21 40 19 57 -14 90 -35 35 -77 38 -115 8z m92 -56 c2 -24 -2 -34 -17 -43
-28 -15 -61 3 -61 33 0 31 20 48 50 45 20 -2 26 -9 28 -35z"/>
<path d="M1040 420 c0 -73 2 -80 20 -80 16 0 20 7 20 33 l0 32 24 -30 24 -29
21 34 21 35 0 -37 c0 -31 4 -38 20 -38 18 0 20 7 20 80 0 96 -15 105 -56 34
l-27 -46 -28 46 c-44 71 -59 62 -59 -34z"/>
</g>
</svg>
