<?xml version="1.0" encoding="UTF-8" standalone="no"?>
<!-- Created with Inkscape (http://www.inkscape.org/) -->

<svg
   xmlns:dc="http://purl.org/dc/elements/1.1/"
   xmlns:cc="http://creativecommons.org/ns#"
   xmlns:rdf="http://www.w3.org/1999/02/22-rdf-syntax-ns#"
   xmlns:svg="http://www.w3.org/2000/svg"
   xmlns="http://www.w3.org/2000/svg"
   xmlns:sodipodi="http://sodipodi.sourceforge.net/DTD/sodipodi-0.dtd"
   xmlns:inkscape="http://www.inkscape.org/namespaces/inkscape"
   width="31.905117mm"
   height="53.387444mm"
   viewBox="0 0 31.905117 53.387444"
   version="1.1"
   id="svg5806"
   sodipodi:docname="circleMill.svg"
   inkscape:version="0.92.5 (2060ec1f9f, 2020-04-08)">
  <defs
     id="defs5800" />
  <sodipodi:namedview
     id="base"
     pagecolor="#ffffff"
     bordercolor="#666666"
     borderopacity="1.0"
     inkscape:pageopacity="0.0"
     inkscape:pageshadow="2"
     inkscape:zoom="2.6033568"
     inkscape:cx="24.133484"
     inkscape:cy="104.55537"
     inkscape:document-units="mm"
     inkscape:current-layer="layer1"
     showgrid="false"
     inkscape:window-width="1916"
     inkscape:window-height="1037"
     inkscape:window-x="0"
     inkscape:window-y="41"
     inkscape:window-maximized="0"
     inkscape:object-paths="false"
     inkscape:snap-bbox="true" />
  <metadata
     id="metadata5803">
    <rdf:RDF>
      <cc:Work
         rdf:about="">
        <dc:format>image/svg+xml</dc:format>
        <dc:type
           rdf:resource="http://purl.org/dc/dcmitype/StillImage" />
      </cc:Work>
    </rdf:RDF>
  </metadata>
  <g
     inkscape:label="Layer 1"
     inkscape:groupmode="layer"
     id="layer1"
     transform="translate(-18.114515,-64.585839)">
    <path
       inkscape:connector-curvature="0"
       id="path1686"
       style="fill:#e0f1e0;fill-opacity:1;fill-rule:nonzero;stroke:none;stroke-width:0.03825388"
       d="m 50.021462,72.224797 c 0.446854,-2.233729 -4.667459,-5.851958 -6.35675,-6.515589 -2.305491,-0.902637 -4.759713,-0.27307 -4.759713,-0.27307 0,0 1.18057,0.516296 1.611641,1.434755 0.546928,1.157443 -0.832395,1.84991 -0.832395,1.84991 l 0.0097,0.0015 c -0.09161,0.02546 -0.184339,0.05068 -0.282487,0.08069 -0.427805,-0.20252 -2.078207,-0.923968 -3.900285,-1.033459 -2.477867,-0.149981 -4.624685,1.200175 -4.624685,1.200175 0,0 1.285078,0.130149 1.980614,0.866869 0.842733,0.900735 -0.130405,1.931605 -0.206066,2.008821 l 0.04655,-0.01775 c -0.09419,0.06301 -0.192456,0.119825 -0.286496,0.183058 -0.472504,-0.05877 -2.270362,-0.23458 -4.042027,0.21838 -2.329414,0.605114 -3.927012,2.447042 -4.021559,2.564099 0.101972,-0.01801 1.300302,-0.246267 2.149045,0.216532 1.069702,0.58112 0.486564,1.83978 0.427998,1.969278 -0.05363,0.08165 -0.116864,0.150651 -0.17681,0.231016 -0.46426,0.08894 -2.237754,0.471125 -3.782774,1.450671 -2.093194,1.328157 -3.03595,3.676619 -3.03595,3.676619 0,0 1.119709,-0.649915 2.115664,-0.462122 1.263193,0.239683 1.01589,1.747296 1.01589,1.747296 l 0.01978,-0.03495 c -0.03988,0.100651 -0.084,0.200136 -0.120369,0.301622 -0.42078,0.227377 -1.979241,1.139309 -3.147258,2.544242 -1.58262,1.904517 -1.754529,4.424263 -1.754529,4.424263 0,0 0.865956,-0.959566 1.876596,-1.088799 1.27833,-0.163761 1.510147,1.344627 1.510147,1.344627 l 0.0065,-0.03117 c -0.003,0.10718 -0.01657,0.213631 -0.02027,0.321021 -0.332302,0.352828 -1.535133,1.691294 -2.203982,3.377566 -0.916524,2.29953 -0.300916,4.738963 -0.300916,4.738963 0,0 0.529022,-1.176714 1.448313,-1.610909 1.170072,-0.548264 1.854026,0.820546 1.854026,0.820546 l -0.0064,-0.01543 c 0.02513,0.09184 0.05597,0.183851 0.08018,0.280913 -0.204344,0.426264 -0.936509,2.072938 -1.054145,3.887978 -0.161407,2.46732 1.190508,4.59965 1.190508,4.59965 0,0 0.131024,-1.2811 0.873692,-1.97735 0.908792,-0.84259 1.944769,0.12275 2.022382,0.19747 l -0.02066,-0.0484 c 0.0629,0.0939 0.119206,0.19103 0.182153,0.28452 -0.06128,0.4707 -0.245693,2.26146 0.207013,4.02442 0.592073,2.31546 2.434742,3.89814 2.552393,3.9914 -0.0182,-0.10116 -0.241585,-1.29384 0.22661,-2.14061 0.588774,-1.06741 1.850147,-0.49179 1.980033,-0.43431 0.082,0.0531 0.15613,0.11725 0.231731,0.17506 0.08688,0.4615 0.468186,2.22673 1.445121,3.76064 1.325114,2.07821 3.674438,3.00575 3.674438,3.00575 0,0 -0.642788,-1.11139 -0.449865,-2.10372 0.24284,-1.25911 1.761363,-1.01857 1.761363,-1.01857 l -0.03416,-0.0223 c 0.10042,0.0412 0.200881,0.0829 0.302825,0.1185 0.225998,0.41796 1.13515,1.96547 2.535937,3.12071 l 0.0087,0.005 c 0.410708,0.0701 7.444545,-5.54681 7.834845,-5.69176 L 41.97012,112.44913 C 30.826383,110.28738 23.59117,99.5289 25.813262,88.420164 28.034218,77.311737 38.872143,70.059668 50.020422,72.221456"
       inkscape:export-filename="/home/it/prj/libtlc/img/logo_300x125.png"
       inkscape:export-xdpi="62.099998"
       inkscape:export-ydpi="62.099998" />
  </g>
</svg>
